<svg xmlns="http://www.w3.org/2000/svg" xmlns:xlink="http://www.w3.org/1999/xlink" width="1920" zoomAndPan="magnify" viewBox="0 0 1440 809.999993" height="1080" preserveAspectRatio="xMidYMid meet" version="1.0"><defs><clipPath id="d35343fff0"><path d="M 46.402344 92 L 1393.402344 92 L 1393.402344 350 L 46.402344 350 Z M 46.402344 92 " clip-rule="nonzero"/></clipPath><clipPath id="cfedfab45c"><path d="M 1368 92 L 1393.402344 92 L 1393.402344 115 L 1368 115 Z M 1368 92 " clip-rule="nonzero"/></clipPath><clipPath id="0e812ea690"><path d="M 46.402344 325 L 74 325 L 74 350 L 46.402344 350 Z M 46.402344 325 " clip-rule="nonzero"/></clipPath><clipPath id="d813771a25"><path d="M 46.402344 0 L 1393.402344 0 L 1393.402344 543 L 46.402344 543 Z M 46.402344 0 " clip-rule="nonzero"/></clipPath><clipPath id="bec50ed0c6"><path d="M 1378 482 L 1393.402344 482 L 1393.402344 513 L 1378 513 Z M 1378 482 " clip-rule="nonzero"/></clipPath><clipPath id="82a24de183"><path d="M 46.402344 250 L 1393.402344 250 L 1393.402344 792 L 46.402344 792 Z M 46.402344 250 " clip-rule="nonzero"/></clipPath><clipPath id="9f7a459a4c"><path d="M 46.402344 250 L 77 250 L 77 276 L 46.402344 276 Z M 46.402344 250 " clip-rule="nonzero"/></clipPath><clipPath id="d1f1aa6210"><path d="M 1298 726 L 1393.402344 726 L 1393.402344 773 L 1298 773 Z M 1298 726 " clip-rule="nonzero"/></clipPath><clipPath id="0f615f3711"><path d="M 46.402344 230 L 1393.402344 230 L 1393.402344 810 L 46.402344 810 Z M 46.402344 230 " clip-rule="nonzero"/></clipPath><clipPath id="131c149d52"><path d="M 1387 230 L 1393.402344 230 L 1393.402344 236 L 1387 236 Z M 1387 230 " clip-rule="nonzero"/></clipPath><clipPath id="c00536125e"><path d="M 1305 248 L 1393.402344 248 L 1393.402344 294 L 1305 294 Z M 1305 248 " clip-rule="nonzero"/></clipPath><clipPath id="db63e417d6"><path d="M 46.402344 769 L 97 769 L 97 807 L 46.402344 807 Z M 46.402344 769 " clip-rule="nonzero"/></clipPath><clipPath id="a0a9235d3d"><path d="M 46.402344 557 L 1393.402344 557 L 1393.402344 773 L 46.402344 773 Z M 46.402344 557 " clip-rule="nonzero"/></clipPath><clipPath id="a02a574959"><path d="M 1353 716 L 1393.402344 716 L 1393.402344 766 L 1353 766 Z M 1353 716 " clip-rule="nonzero"/></clipPath><clipPath id="969ddd83ea"><path d="M 46.402344 557 L 128 557 L 128 619 L 46.402344 619 Z M 46.402344 557 " clip-rule="nonzero"/></clipPath></defs><g clip-path="url(#d35343fff0)"><path fill="#fcc500" d="M 1393.402344 92.882812 L 1393.402344 144.695312 L 1384.808594 146.015625 L 1384.78125 146.015625 L 1340.84375 152.699219 L 1340.816406 152.699219 L 1297.390625 159.273438 L 1278.664062 162.128906 L 1253.449219 165.953125 L 1210.023438 172.554688 L 1166.054688 179.238281 L 1122.628906 185.839844 L 1078.664062 192.523438 L 1035.210938 199.121094 L 991.242188 205.804688 L 991.214844 205.804688 L 947.789062 212.378906 L 917.347656 217.011719 L 903.851562 219.0625 L 860.421875 225.664062 L 816.457031 232.34375 L 773.027344 238.945312 L 729.0625 245.628906 L 725.9375 246.085938 L 725.910156 246.085938 L 716.589844 247.515625 L 685.636719 252.230469 L 684.828125 252.335938 L 652.660156 257.214844 L 652.660156 257.242188 L 641.667969 258.910156 L 641.644531 258.910156 L 620.925781 262.035156 L 620.898438 262.035156 L 619.902344 262.199219 L 619.875 262.199219 L 598.214844 265.484375 L 554.277344 272.167969 L 510.820312 278.769531 L 466.855469 285.449219 L 423.429688 292.050781 L 379.460938 298.734375 L 336.035156 305.335938 L 292.070312 312.015625 L 248.640625 318.589844 L 238.726562 320.101562 L 238.675781 320.101562 L 204.675781 325.273438 L 161.25 331.875 L 136.785156 335.59375 L 136.761719 335.59375 L 132.558594 336.238281 L 117.28125 338.558594 L 73.828125 345.15625 L 46.402344 349.335938 L 46.402344 297.496094 L 57.746094 295.769531 L 83.851562 291.808594 L 83.875 291.808594 L 101.710938 289.089844 L 137.675781 283.644531 L 137.703125 283.617188 L 189.132812 275.832031 L 232.558594 269.230469 L 276.523438 262.546875 L 319.953125 255.945312 L 363.917969 249.265625 L 407.34375 242.664062 L 451.3125 236.007812 L 494.738281 229.40625 L 519.011719 225.714844 L 519.039062 225.714844 L 519.039062 225.6875 L 533.667969 223.480469 L 538.703125 222.726562 L 565.457031 218.65625 L 582.132812 216.125 L 597.597656 213.78125 L 597.597656 213.753906 L 613.300781 211.382812 L 625.074219 209.605469 L 625.101562 209.605469 L 626.097656 209.441406 L 669.550781 202.839844 L 713.492188 196.160156 L 756.945312 189.558594 L 800.910156 182.902344 L 844.339844 176.300781 L 888.304688 169.621094 L 931.734375 163.019531 L 975.699219 156.335938 L 1019.125 149.734375 L 1063.09375 143.054688 L 1106.519531 136.453125 L 1113.929688 135.320312 L 1193.941406 123.195312 L 1237.90625 116.511719 L 1281.332031 109.910156 L 1325.300781 103.230469 L 1368.726562 96.628906 Z M 1393.402344 92.882812 " fill-opacity="1" fill-rule="nonzero"/></g><g clip-path="url(#cfedfab45c)"><path fill="#000000" d="M 1393.402344 92.882812 L 1393.402344 114.359375 L 1368.726562 96.628906 Z M 1393.402344 92.882812 " fill-opacity="1" fill-rule="nonzero"/></g><path fill="#000000" d="M 1281.332031 109.910156 L 1340.84375 152.699219 L 1384.808594 146.015625 L 1325.300781 103.230469 Z M 1281.332031 109.910156 " fill-opacity="1" fill-rule="nonzero"/><path fill="#000000" d="M 1253.449219 165.953125 L 1193.941406 123.195312 L 1237.90625 116.511719 L 1297.417969 159.300781 Z M 1253.449219 165.953125 " fill-opacity="1" fill-rule="nonzero"/><path fill="#000000" d="M 1106.519531 136.453125 L 1166.054688 179.238281 L 1210.023438 172.554688 L 1150.484375 129.796875 Z M 1106.519531 136.453125 " fill-opacity="1" fill-rule="nonzero"/><path fill="#000000" d="M 1019.125 149.734375 L 1078.664062 192.523438 L 1122.628906 185.839844 L 1063.09375 143.054688 Z M 1019.125 149.734375 " fill-opacity="1" fill-rule="nonzero"/><path fill="#000000" d="M 931.734375 163.019531 L 991.242188 205.804688 L 1035.210938 199.121094 L 975.699219 156.335938 Z M 931.734375 163.019531 " fill-opacity="1" fill-rule="nonzero"/><path fill="#000000" d="M 844.339844 176.300781 L 903.851562 219.0625 L 947.816406 212.40625 L 888.304688 169.621094 Z M 844.339844 176.300781 " fill-opacity="1" fill-rule="nonzero"/><path fill="#000000" d="M 756.945312 189.558594 L 816.457031 232.34375 L 860.421875 225.664062 L 800.910156 182.902344 Z M 756.945312 189.558594 " fill-opacity="1" fill-rule="nonzero"/><path fill="#000000" d="M 669.550781 202.839844 L 729.0625 245.628906 L 773.027344 238.945312 L 713.492188 196.160156 Z M 669.550781 202.839844 " fill-opacity="1" fill-rule="nonzero"/><path fill="#000000" d="M 582.132812 216.125 L 641.667969 258.910156 L 685.636719 252.230469 L 626.097656 209.441406 Z M 582.132812 216.125 " fill-opacity="1" fill-rule="nonzero"/><path fill="#000000" d="M 494.738281 229.40625 L 554.277344 272.167969 L 598.214844 265.484375 L 538.703125 222.726562 Z M 494.738281 229.40625 " fill-opacity="1" fill-rule="nonzero"/><path fill="#000000" d="M 466.855469 285.449219 L 407.34375 242.664062 L 451.3125 236.007812 L 510.820312 278.769531 Z M 466.855469 285.449219 " fill-opacity="1" fill-rule="nonzero"/><path fill="#000000" d="M 319.953125 255.945312 L 379.460938 298.734375 L 423.429688 292.050781 L 363.917969 249.265625 Z M 319.953125 255.945312 " fill-opacity="1" fill-rule="nonzero"/><path fill="#000000" d="M 232.558594 269.230469 L 292.070312 312.015625 L 336.035156 305.335938 L 276.523438 262.546875 Z M 232.558594 269.230469 " fill-opacity="1" fill-rule="nonzero"/><path fill="#000000" d="M 145.164062 282.515625 L 204.675781 325.273438 L 248.640625 318.589844 L 189.132812 275.832031 Z M 145.164062 282.515625 " fill-opacity="1" fill-rule="nonzero"/><path fill="#000000" d="M 57.746094 295.769531 L 117.28125 338.558594 L 161.25 331.875 L 101.710938 289.089844 Z M 57.746094 295.769531 " fill-opacity="1" fill-rule="nonzero"/><g clip-path="url(#0e812ea690)"><path fill="#000000" d="M 73.828125 345.15625 L 46.402344 349.335938 L 46.402344 325.433594 Z M 73.828125 345.15625 " fill-opacity="1" fill-rule="nonzero"/></g><g clip-path="url(#d813771a25)"><path fill="#fcc500" d="M 1393.402344 487.609375 L 1393.402344 542.117188 L 1369.347656 533.414062 L 1369.320312 533.386719 L 1327.535156 518.273438 L 1286.234375 503.316406 L 1244.398438 488.203125 L 1244.371094 488.175781 L 1203.097656 473.25 L 1161.289062 458.105469 L 1119.960938 443.152344 L 1119.933594 443.152344 L 1078.152344 428.035156 L 1052.101562 418.605469 L 1052.074219 418.605469 L 1036.851562 413.082031 L 995.015625 397.96875 L 994.988281 397.941406 L 978.90625 392.09375 L 978.878906 392.09375 L 953.714844 383.015625 L 953.6875 382.988281 L 911.90625 367.871094 L 870.605469 352.917969 L 854.523438 347.097656 L 828.769531 337.773438 L 828.742188 337.773438 L 787.46875 322.847656 L 745.65625 307.707031 L 704.332031 292.753906 L 662.519531 277.636719 L 662.496094 277.609375 L 621.222656 262.683594 L 619.902344 262.199219 L 619.875 262.199219 L 579.382812 247.539062 L 567.019531 243.066406 L 538.085938 232.585938 L 538.058594 232.585938 L 519.066406 225.714844 L 519.039062 225.714844 L 519.039062 225.6875 L 496.273438 217.472656 L 454.949219 202.519531 L 413.136719 187.375 L 413.109375 187.375 L 371.839844 172.449219 L 371.8125 172.421875 L 330.027344 157.304688 L 288.703125 142.351562 L 246.890625 127.238281 L 246.863281 127.210938 L 205.589844 112.28125 L 163.753906 97.140625 L 122.453125 82.1875 L 80.644531 67.070312 L 46.402344 54.675781 L 46.402344 0.195312 L 48.773438 1.058594 L 90.585938 16.175781 L 131.910156 31.128906 L 173.722656 46.269531 L 215.019531 61.226562 L 256.832031 76.339844 L 298.15625 91.292969 L 339.96875 106.4375 L 381.265625 121.390625 L 423.078125 136.503906 L 464.40625 151.460938 L 547.542969 181.527344 L 589.351562 196.671875 L 625.074219 209.605469 L 625.101562 209.605469 L 627.554688 210.492188 L 627.578125 210.492188 L 630.652344 211.625 L 672.460938 226.738281 L 713.789062 241.695312 L 725.910156 246.085938 L 725.9375 246.085938 L 755.597656 256.835938 L 796.898438 271.789062 L 838.734375 286.90625 L 880.035156 301.859375 L 921.84375 317 L 963.171875 331.957031 L 1004.984375 347.070312 L 1046.28125 362.023438 L 1051.425781 363.882812 L 1051.453125 363.882812 L 1124.648438 390.371094 L 1124.675781 390.371094 L 1129.417969 392.09375 L 1171.230469 407.234375 L 1212.554688 422.191406 L 1254.367188 437.304688 L 1295.664062 452.257812 L 1337.476562 467.402344 L 1378.800781 482.355469 Z M 1393.402344 487.609375 " fill-opacity="1" fill-rule="nonzero"/></g><g clip-path="url(#bec50ed0c6)"><path fill="#000000" d="M 1393.402344 487.636719 L 1393.402344 512.585938 L 1378.800781 482.355469 Z M 1393.402344 487.636719 " fill-opacity="1" fill-rule="nonzero"/></g><path fill="#000000" d="M 1295.664062 452.257812 L 1327.535156 518.273438 L 1369.347656 533.414062 L 1337.476562 467.402344 Z M 1295.664062 452.257812 " fill-opacity="1" fill-rule="nonzero"/><path fill="#000000" d="M 1244.398438 488.203125 L 1212.554688 422.191406 L 1254.367188 437.304688 L 1286.234375 503.316406 Z M 1244.398438 488.203125 " fill-opacity="1" fill-rule="nonzero"/><path fill="#000000" d="M 1129.417969 392.09375 L 1161.289062 458.105469 L 1203.097656 473.25 L 1171.230469 407.234375 Z M 1129.417969 392.09375 " fill-opacity="1" fill-rule="nonzero"/><path fill="#000000" d="M 1046.28125 362.023438 L 1078.152344 428.035156 L 1119.960938 443.179688 L 1088.09375 377.167969 Z M 1046.28125 362.023438 " fill-opacity="1" fill-rule="nonzero"/><path fill="#000000" d="M 963.171875 331.957031 L 995.015625 397.96875 L 1036.851562 413.082031 L 1004.984375 347.070312 Z M 963.171875 331.957031 " fill-opacity="1" fill-rule="nonzero"/><path fill="#000000" d="M 880.035156 301.859375 L 911.90625 367.871094 L 953.714844 383.015625 L 921.84375 317 Z M 880.035156 301.859375 " fill-opacity="1" fill-rule="nonzero"/><path fill="#000000" d="M 796.898438 271.789062 L 828.769531 337.800781 L 870.605469 352.917969 L 838.734375 286.90625 Z M 796.898438 271.789062 " fill-opacity="1" fill-rule="nonzero"/><path fill="#000000" d="M 713.789062 241.695312 L 745.65625 307.707031 L 787.46875 322.847656 L 755.597656 256.835938 Z M 713.789062 241.695312 " fill-opacity="1" fill-rule="nonzero"/><path fill="#000000" d="M 630.652344 211.625 L 662.519531 277.636719 L 704.332031 292.753906 L 672.460938 226.738281 Z M 630.652344 211.625 " fill-opacity="1" fill-rule="nonzero"/><path fill="#000000" d="M 547.542969 181.527344 L 579.382812 247.539062 L 621.222656 262.683594 L 589.351562 196.671875 Z M 547.542969 181.527344 " fill-opacity="1" fill-rule="nonzero"/><path fill="#000000" d="M 496.273438 217.472656 L 464.40625 151.460938 L 506.214844 166.601562 L 538.085938 232.613281 Z M 496.273438 217.472656 " fill-opacity="1" fill-rule="nonzero"/><path fill="#000000" d="M 381.265625 121.390625 L 413.136719 187.402344 L 454.949219 202.519531 L 423.078125 136.503906 Z M 381.265625 121.390625 " fill-opacity="1" fill-rule="nonzero"/><path fill="#000000" d="M 298.15625 91.292969 L 330.027344 157.304688 L 371.839844 172.449219 L 339.96875 106.4375 Z M 298.15625 91.292969 " fill-opacity="1" fill-rule="nonzero"/><path fill="#000000" d="M 215.019531 61.226562 L 246.890625 127.238281 L 288.703125 142.351562 L 256.832031 76.339844 Z M 215.019531 61.226562 " fill-opacity="1" fill-rule="nonzero"/><path fill="#000000" d="M 131.910156 31.128906 L 163.753906 97.140625 L 205.589844 112.28125 L 173.722656 46.269531 Z M 131.910156 31.128906 " fill-opacity="1" fill-rule="nonzero"/><path fill="#000000" d="M 80.644531 67.070312 L 48.773438 1.058594 L 90.585938 16.175781 L 122.453125 82.1875 Z M 80.644531 67.070312 " fill-opacity="1" fill-rule="nonzero"/><g clip-path="url(#82a24de183)"><path fill="#fcc500" d="M 1393.402344 737 L 1393.402344 791.480469 L 1340.0625 772.214844 L 1340.035156 772.214844 L 1314.605469 763.027344 L 1314.550781 763 L 1310.804688 761.65625 L 1298.199219 757.101562 L 1256.871094 742.175781 L 1255.390625 741.636719 L 1255.363281 741.636719 L 1215.058594 727.085938 L 1199.300781 721.402344 L 1173.734375 712.160156 L 1143.886719 701.382812 L 1143.859375 701.382812 L 1131.921875 697.070312 L 1131.898438 697.070312 L 1099.460938 685.324219 L 1099.40625 685.296875 L 1099.351562 685.296875 L 1099.273438 685.269531 L 1090.597656 682.144531 L 1048.785156 667.054688 L 1048.761719 667.054688 L 1007.460938 652.128906 L 1007.433594 652.128906 L 965.621094 637.011719 L 924.324219 622.113281 L 924.296875 622.113281 L 882.460938 606.996094 L 841.132812 592.070312 L 799.324219 576.980469 L 757.996094 562.054688 L 719.257812 548.070312 L 719.230469 548.070312 L 716.1875 546.964844 L 716.160156 546.964844 L 674.859375 532.039062 L 651.824219 523.714844 L 651.582031 523.632812 L 645.953125 521.585938 L 645.925781 521.585938 L 633.023438 516.925781 L 591.722656 502.023438 L 591.695312 502.023438 L 549.859375 486.910156 L 508.585938 472.007812 L 508.558594 472.007812 L 466.722656 456.894531 L 425.394531 441.96875 L 383.585938 426.878906 L 342.257812 411.953125 L 300.449219 396.863281 L 300.421875 396.863281 L 259.121094 381.9375 L 259.09375 381.9375 L 217.285156 366.820312 L 175.984375 351.921875 L 175.957031 351.921875 L 134.121094 336.804688 L 132.558594 336.238281 L 95.40625 322.820312 L 95.378906 322.820312 L 92.820312 321.878906 L 50.984375 306.789062 L 46.402344 305.121094 L 46.402344 250.691406 L 76.308594 261.496094 L 76.332031 261.496094 L 117.660156 276.398438 L 117.6875 276.398438 L 137.675781 283.644531 L 155.832031 290.191406 L 155.859375 290.191406 L 159.523438 291.511719 L 200.796875 306.414062 L 200.824219 306.414062 L 238.675781 320.101562 L 238.726562 320.101562 L 242.632812 321.527344 L 242.660156 321.527344 L 283.988281 336.457031 L 325.769531 351.542969 L 325.796875 351.542969 L 367.125 366.46875 L 408.933594 381.558594 L 408.960938 381.558594 L 450.261719 396.484375 L 450.289062 396.484375 L 492.097656 411.601562 L 533.398438 426.5 L 533.425781 426.5 L 575.261719 441.617188 L 616.535156 456.515625 L 616.5625 456.515625 L 658.398438 471.632812 L 699.726562 486.558594 L 718.53125 493.347656 L 718.554688 493.347656 L 741.535156 501.648438 L 782.863281 516.574219 L 791.859375 519.835938 L 791.886719 519.835938 L 824.671875 531.664062 L 824.699219 531.664062 L 866 546.589844 L 866.027344 546.589844 L 907.835938 561.703125 L 949.136719 576.605469 L 949.164062 576.605469 L 991 591.71875 L 1032.328125 606.648438 L 1074.136719 621.734375 L 1115.464844 636.664062 L 1157.273438 651.75 L 1198.601562 666.675781 L 1240.4375 681.792969 L 1281.738281 696.691406 L 1281.765625 696.691406 L 1323.574219 711.808594 L 1326.429688 712.832031 L 1360.832031 725.253906 L 1364.875 726.707031 L 1364.902344 726.707031 Z M 1393.402344 737 " fill-opacity="1" fill-rule="nonzero"/></g><g clip-path="url(#9f7a459a4c)"><path fill="#000000" d="M 76.359375 261.46875 L 76.332031 261.496094 L 76.308594 261.496094 L 46.402344 275.132812 L 46.402344 250.667969 Z M 76.359375 261.46875 " fill-opacity="1" fill-rule="nonzero"/></g><path fill="#000000" d="M 159.523438 291.511719 L 92.820312 321.878906 L 50.984375 306.789062 L 117.6875 276.398438 Z M 159.523438 291.511719 " fill-opacity="1" fill-rule="nonzero"/><path fill="#000000" d="M 175.957031 351.921875 L 242.660156 321.527344 L 200.824219 306.414062 L 134.121094 336.804688 Z M 175.957031 351.921875 " fill-opacity="1" fill-rule="nonzero"/><path fill="#000000" d="M 325.796875 351.542969 L 259.09375 381.9375 L 217.285156 366.820312 L 283.988281 336.457031 Z M 325.796875 351.542969 " fill-opacity="1" fill-rule="nonzero"/><path fill="#000000" d="M 408.960938 381.558594 L 342.257812 411.953125 L 300.421875 396.863281 L 367.125 366.46875 Z M 408.960938 381.558594 " fill-opacity="1" fill-rule="nonzero"/><path fill="#000000" d="M 492.097656 411.601562 L 425.394531 441.96875 L 383.585938 426.878906 L 450.289062 396.484375 Z M 492.097656 411.601562 " fill-opacity="1" fill-rule="nonzero"/><path fill="#000000" d="M 575.261719 441.617188 L 508.558594 472.007812 L 466.722656 456.894531 L 533.425781 426.5 Z M 575.261719 441.617188 " fill-opacity="1" fill-rule="nonzero"/><path fill="#000000" d="M 658.398438 471.632812 L 591.695312 502.023438 L 549.859375 486.910156 L 616.5625 456.515625 Z M 658.398438 471.632812 " fill-opacity="1" fill-rule="nonzero"/><path fill="#000000" d="M 741.535156 501.648438 L 674.859375 532.039062 L 633.023438 516.925781 L 699.726562 486.558594 Z M 741.535156 501.648438 " fill-opacity="1" fill-rule="nonzero"/><path fill="#000000" d="M 824.699219 531.664062 L 757.996094 562.054688 L 716.160156 546.964844 L 782.863281 516.574219 Z M 824.699219 531.664062 " fill-opacity="1" fill-rule="nonzero"/><path fill="#000000" d="M 907.835938 561.703125 L 841.132812 592.070312 L 799.324219 576.980469 L 866.027344 546.589844 Z M 907.835938 561.703125 " fill-opacity="1" fill-rule="nonzero"/><path fill="#000000" d="M 924.296875 622.113281 L 991 591.71875 L 949.164062 576.605469 L 882.460938 606.996094 Z M 924.296875 622.113281 " fill-opacity="1" fill-rule="nonzero"/><path fill="#000000" d="M 1074.136719 621.734375 L 1007.433594 652.128906 L 965.621094 637.011719 L 1032.328125 606.648438 Z M 1074.136719 621.734375 " fill-opacity="1" fill-rule="nonzero"/><path fill="#000000" d="M 1157.273438 651.75 L 1090.597656 682.144531 L 1048.761719 667.054688 L 1115.464844 636.664062 Z M 1157.273438 651.75 " fill-opacity="1" fill-rule="nonzero"/><path fill="#000000" d="M 1240.4375 681.792969 L 1173.734375 712.160156 L 1131.898438 697.070312 L 1198.601562 666.675781 Z M 1240.4375 681.792969 " fill-opacity="1" fill-rule="nonzero"/><path fill="#000000" d="M 1323.574219 711.808594 L 1256.871094 742.175781 L 1215.058594 727.085938 L 1281.765625 696.691406 Z M 1323.574219 711.808594 " fill-opacity="1" fill-rule="nonzero"/><g clip-path="url(#d1f1aa6210)"><path fill="#000000" d="M 1393.402344 737 L 1393.402344 747.914062 L 1382.871094 752.710938 L 1354.015625 765.832031 L 1350.621094 767.394531 L 1340.0625 772.214844 L 1340.035156 772.214844 L 1314.605469 763.027344 L 1314.550781 763 L 1310.804688 761.65625 L 1298.199219 757.101562 L 1304.769531 754.109375 L 1333.945312 740.828125 L 1362.773438 727.679688 L 1364.875 726.707031 L 1364.902344 726.707031 Z M 1393.402344 737 " fill-opacity="1" fill-rule="nonzero"/></g><g clip-path="url(#0f615f3711)"><path fill="#fcc500" d="M 1393.402344 230.863281 L 1393.402344 285.855469 L 1372.957031 293.804688 L 1332.007812 309.726562 L 1290.574219 325.839844 L 1249.625 341.761719 L 1208.191406 357.875 L 1167.242188 373.824219 L 1125.78125 389.9375 L 1124.675781 390.371094 L 1124.648438 390.371094 L 1099.246094 400.257812 L 1084.859375 405.863281 L 1070.203125 411.546875 L 1070.203125 411.574219 L 1052.101562 418.605469 L 1052.074219 418.605469 L 1043.398438 421.972656 L 1002.476562 437.898438 L 961.015625 454.039062 L 920.066406 469.960938 L 878.632812 486.074219 L 837.683594 501.996094 L 791.886719 519.835938 L 791.859375 519.835938 L 755.300781 534.035156 L 719.257812 548.070312 L 719.230469 548.070312 L 713.84375 550.171875 L 672.921875 566.097656 L 631.460938 582.210938 L 590.511719 598.132812 L 549.078125 614.246094 L 540.726562 617.503906 L 526.5 623.027344 L 508.128906 630.167969 L 496.140625 634.832031 L 496.140625 634.855469 L 466.695312 646.308594 L 466.15625 646.523438 L 439.566406 656.84375 L 439.539062 656.871094 L 425.746094 662.230469 L 384.285156 678.34375 L 343.363281 694.269531 L 301.902344 710.378906 L 260.953125 726.332031 L 219.519531 742.445312 L 178.570312 758.367188 L 137.136719 774.480469 L 96.1875 790.402344 L 54.726562 806.542969 L 46.402344 809.777344 L 46.402344 754.8125 L 69.707031 745.730469 L 111.140625 729.617188 L 152.089844 713.695312 L 193.550781 697.582031 L 234.472656 681.660156 L 275.933594 665.519531 L 316.882812 649.59375 L 331.832031 643.777344 L 341.773438 639.894531 L 341.800781 639.894531 L 358.316406 633.484375 L 372.136719 628.09375 L 399.261719 617.558594 L 402.144531 616.425781 L 432.535156 604.625 L 432.535156 604.597656 L 432.964844 604.4375 L 432.992188 604.4375 L 440.695312 601.445312 L 481.644531 585.523438 L 523.078125 569.382812 L 564.027344 553.460938 L 605.488281 537.347656 L 645.925781 521.585938 L 645.953125 521.585938 L 646.4375 521.425781 L 687.871094 505.285156 L 718.53125 493.347656 L 718.554688 493.347656 L 728.820312 489.359375 L 770.253906 473.25 L 811.203125 457.324219 L 852.636719 441.210938 L 893.585938 425.289062 L 935.046875 409.148438 L 975.996094 393.226562 L 978.878906 392.09375 L 978.90625 392.09375 L 990.085938 387.757812 L 990.085938 387.730469 L 1017.429688 377.113281 L 1019.152344 376.441406 L 1047.84375 365.285156 L 1051.425781 363.882812 L 1051.453125 363.882812 L 1058.378906 361.191406 L 1099.8125 345.078125 L 1140.761719 329.152344 L 1182.195312 313.015625 L 1223.140625 297.089844 L 1264.601562 280.976562 L 1305.550781 265.054688 L 1346.984375 248.941406 L 1387.933594 232.992188 Z M 1393.402344 230.863281 " fill-opacity="1" fill-rule="nonzero"/></g><g clip-path="url(#131c149d52)"><path fill="#000000" d="M 1393.402344 230.863281 L 1393.402344 235.335938 L 1387.933594 232.992188 Z M 1393.402344 230.863281 " fill-opacity="1" fill-rule="nonzero"/></g><g clip-path="url(#c00536125e)"><path fill="#000000" d="M 1393.402344 268.71875 L 1393.402344 285.855469 L 1372.957031 293.804688 L 1305.550781 265.054688 L 1346.984375 248.941406 Z M 1393.402344 268.71875 " fill-opacity="1" fill-rule="nonzero"/></g><path fill="#000000" d="M 1223.140625 297.089844 L 1290.574219 325.839844 L 1332.007812 309.726562 L 1264.601562 280.976562 Z M 1223.140625 297.089844 " fill-opacity="1" fill-rule="nonzero"/><path fill="#000000" d="M 1208.191406 357.875 L 1140.761719 329.152344 L 1182.195312 313.015625 L 1249.625 341.761719 Z M 1208.191406 357.875 " fill-opacity="1" fill-rule="nonzero"/><path fill="#000000" d="M 1058.378906 361.191406 L 1125.78125 389.9375 L 1167.242188 373.824219 L 1099.8125 345.078125 Z M 1058.378906 361.191406 " fill-opacity="1" fill-rule="nonzero"/><path fill="#000000" d="M 975.996094 393.226562 L 1043.398438 421.972656 L 1084.859375 405.863281 L 1017.429688 377.113281 Z M 975.996094 393.226562 " fill-opacity="1" fill-rule="nonzero"/><path fill="#000000" d="M 893.585938 425.289062 L 961.015625 454.039062 L 1002.476562 437.898438 L 935.046875 409.148438 Z M 893.585938 425.289062 " fill-opacity="1" fill-rule="nonzero"/><path fill="#000000" d="M 811.203125 457.324219 L 878.632812 486.074219 L 920.066406 469.960938 L 852.636719 441.210938 Z M 811.203125 457.324219 " fill-opacity="1" fill-rule="nonzero"/><path fill="#000000" d="M 728.820312 489.359375 L 796.222656 518.109375 L 837.683594 501.996094 L 770.253906 473.25 Z M 728.820312 489.359375 " fill-opacity="1" fill-rule="nonzero"/><path fill="#000000" d="M 646.4375 521.425781 L 713.84375 550.171875 L 755.300781 534.035156 L 687.871094 505.285156 Z M 646.4375 521.425781 " fill-opacity="1" fill-rule="nonzero"/><path fill="#000000" d="M 564.027344 553.460938 L 631.460938 582.210938 L 672.921875 566.097656 L 605.488281 537.347656 Z M 564.027344 553.460938 " fill-opacity="1" fill-rule="nonzero"/><path fill="#000000" d="M 481.644531 585.523438 L 549.078125 614.246094 L 590.511719 598.132812 L 523.078125 569.382812 Z M 481.644531 585.523438 " fill-opacity="1" fill-rule="nonzero"/><path fill="#000000" d="M 466.695312 646.308594 L 399.261719 617.558594 L 440.695312 601.445312 L 508.128906 630.167969 Z M 466.695312 646.308594 " fill-opacity="1" fill-rule="nonzero"/><path fill="#000000" d="M 316.882812 649.59375 L 384.285156 678.34375 L 425.746094 662.230469 L 358.316406 633.484375 Z M 316.882812 649.59375 " fill-opacity="1" fill-rule="nonzero"/><path fill="#000000" d="M 234.472656 681.660156 L 301.902344 710.378906 L 343.363281 694.269531 L 275.933594 665.519531 Z M 234.472656 681.660156 " fill-opacity="1" fill-rule="nonzero"/><path fill="#000000" d="M 152.089844 713.695312 L 219.519531 742.445312 L 260.953125 726.332031 L 193.550781 697.582031 Z M 152.089844 713.695312 " fill-opacity="1" fill-rule="nonzero"/><path fill="#000000" d="M 69.707031 745.730469 L 137.136719 774.480469 L 178.570312 758.367188 L 111.140625 729.617188 Z M 69.707031 745.730469 " fill-opacity="1" fill-rule="nonzero"/><g clip-path="url(#db63e417d6)"><path fill="#000000" d="M 96.1875 790.402344 L 54.726562 806.542969 L 46.402344 802.984375 L 46.402344 769.171875 Z M 96.1875 790.402344 " fill-opacity="1" fill-rule="nonzero"/></g><g clip-path="url(#a0a9235d3d)"><path fill="#fcc500" d="M 1393.402344 720.96875 L 1393.402344 772.566406 L 1355.769531 768.011719 L 1350.621094 767.394531 L 1314.605469 763.027344 L 1314.550781 763 L 1311.613281 762.652344 L 1267.996094 757.371094 L 1223.871094 752.007812 L 1180.253906 746.726562 L 1136.097656 741.367188 L 1092.484375 736.058594 L 1048.355469 730.722656 L 1004.738281 725.414062 L 960.585938 720.054688 L 916.96875 714.773438 L 872.839844 709.410156 L 829.226562 704.128906 L 785.070312 698.769531 L 741.457031 693.488281 L 697.328125 688.125 L 653.710938 682.84375 L 609.558594 677.480469 L 565.941406 672.175781 L 521.8125 666.839844 L 478.199219 661.53125 L 461.710938 659.539062 L 439.566406 656.84375 L 434.042969 656.195312 L 434.015625 656.167969 L 402.632812 652.371094 L 402.605469 652.371094 L 390.425781 650.886719 L 346.300781 645.527344 L 331.832031 643.777344 L 302.683594 640.246094 L 258.527344 634.882812 L 214.914062 629.601562 L 170.785156 624.242188 L 127.167969 618.960938 L 83.015625 613.597656 L 46.402344 609.152344 L 46.402344 557.527344 L 124.90625 567.066406 L 169.0625 572.429688 L 212.675781 577.710938 L 256.804688 583.070312 L 300.421875 588.351562 L 344.574219 593.714844 L 432.320312 604.355469 L 432.964844 604.4375 L 432.992188 604.4375 L 453.574219 606.945312 L 453.601562 606.945312 L 475.933594 609.664062 L 540.726562 617.503906 L 563.707031 620.308594 L 607.832031 625.667969 L 651.449219 630.949219 L 695.601562 636.3125 L 739.21875 641.59375 L 783.347656 646.953125 L 826.960938 652.234375 L 871.117188 657.597656 L 958.859375 668.242188 L 1038.925781 677.941406 L 1046.632812 678.882812 L 1099.273438 685.269531 L 1099.351562 685.296875 L 1099.40625 685.296875 L 1145.472656 690.875 L 1145.5 690.875 L 1177.992188 694.832031 L 1204.660156 698.066406 L 1204.6875 698.066406 L 1222.144531 700.195312 L 1263.175781 705.152344 L 1263.203125 705.152344 L 1265.734375 705.476562 L 1309.890625 710.839844 L 1322.390625 712.347656 L 1326.429688 712.832031 L 1353.503906 716.121094 Z M 1393.402344 720.96875 " fill-opacity="1" fill-rule="nonzero"/></g><g clip-path="url(#a02a574959)"><path fill="#000000" d="M 1393.402344 720.96875 L 1393.402344 765.832031 L 1382.871094 752.710938 L 1362.773438 727.679688 L 1360.832031 725.253906 L 1353.503906 716.121094 Z M 1393.402344 720.96875 " fill-opacity="1" fill-rule="nonzero"/></g><path fill="#000000" d="M 1265.734375 705.476562 L 1311.613281 762.652344 L 1355.769531 768.011719 L 1309.890625 710.839844 Z M 1265.734375 705.476562 " fill-opacity="1" fill-rule="nonzero"/><path fill="#000000" d="M 1223.871094 752.007812 L 1177.992188 694.832031 L 1222.144531 700.195312 L 1267.996094 757.371094 Z M 1223.871094 752.007812 " fill-opacity="1" fill-rule="nonzero"/><path fill="#000000" d="M 1090.21875 684.191406 L 1136.097656 741.367188 L 1180.253906 746.726562 L 1134.375 689.554688 Z M 1090.21875 684.191406 " fill-opacity="1" fill-rule="nonzero"/><path fill="#000000" d="M 1002.476562 673.546875 L 1048.355469 730.722656 L 1092.484375 736.058594 L 1046.632812 678.882812 Z M 1002.476562 673.546875 " fill-opacity="1" fill-rule="nonzero"/><path fill="#000000" d="M 914.734375 662.90625 L 960.585938 720.054688 L 1004.738281 725.414062 L 958.859375 668.242188 Z M 914.734375 662.90625 " fill-opacity="1" fill-rule="nonzero"/><path fill="#000000" d="M 826.960938 652.234375 L 872.839844 709.410156 L 916.96875 714.773438 L 871.117188 657.597656 Z M 826.960938 652.234375 " fill-opacity="1" fill-rule="nonzero"/><path fill="#000000" d="M 739.21875 641.59375 L 785.070312 698.769531 L 829.226562 704.128906 L 783.347656 646.953125 Z M 739.21875 641.59375 " fill-opacity="1" fill-rule="nonzero"/><path fill="#000000" d="M 651.449219 630.949219 L 697.328125 688.125 L 741.457031 693.488281 L 695.601562 636.3125 Z M 651.449219 630.949219 " fill-opacity="1" fill-rule="nonzero"/><path fill="#000000" d="M 563.707031 620.308594 L 609.558594 677.480469 L 653.710938 682.84375 L 607.832031 625.667969 Z M 563.707031 620.308594 " fill-opacity="1" fill-rule="nonzero"/><path fill="#000000" d="M 475.933594 609.664062 L 521.8125 666.839844 L 565.941406 672.175781 L 520.089844 615.027344 Z M 475.933594 609.664062 " fill-opacity="1" fill-rule="nonzero"/><path fill="#000000" d="M 434.042969 656.195312 L 388.191406 599.023438 L 432.320312 604.355469 L 478.199219 661.53125 Z M 434.042969 656.195312 " fill-opacity="1" fill-rule="nonzero"/><path fill="#000000" d="M 300.421875 588.351562 L 346.300781 645.527344 L 390.425781 650.886719 L 344.574219 593.714844 Z M 300.421875 588.351562 " fill-opacity="1" fill-rule="nonzero"/><path fill="#000000" d="M 212.675781 577.710938 L 258.527344 634.882812 L 302.683594 640.246094 L 256.804688 583.070312 Z M 212.675781 577.710938 " fill-opacity="1" fill-rule="nonzero"/><path fill="#000000" d="M 124.90625 567.066406 L 170.785156 624.242188 L 214.914062 629.601562 L 169.0625 572.429688 Z M 124.90625 567.066406 " fill-opacity="1" fill-rule="nonzero"/><g clip-path="url(#969ddd83ea)"><path fill="#000000" d="M 127.167969 618.960938 L 83.015625 613.597656 L 46.402344 567.957031 L 46.402344 557.554688 L 81.289062 561.785156 Z M 127.167969 618.960938 " fill-opacity="1" fill-rule="nonzero"/></g></svg>